# xmcd
#
# Track frame offsets:
#	150
#	11652
#	27661
#	38330
#	50544
#	66181
#	79297
#	92610
#	107288
#	120179
#	134286
#	150524
#	163026
#	176151
#	189484
#	201623
#	216591
#	230213
#	245498
#	261336
#
# Disc length: 3611 seconds
#
# Revision: 0
# Processed by: cddbd v1.5.2PL0 Copyright (c) Steve Scherf et al.
# Submitted via: EasyCDDAExtractor 16.0.6.1
#
DISCID=1b0e1914
DTITLE=Λίντα Μαίρη - Τραγούδια 45 στροφές-Λίντα Μαίρη 1
DYEAR=1996
DGENRE=Λαϊκή
TTITLE0=Λίντα Μαίρη-Χιώτης Μανώλης - Στην κούκλα πού 'χω αγκαλιά [1964, Μαν. Χ
TTITLE0=ιώτη]
TTITLE1=Λίντα Μαίρη - Τα κλειδιά [1963, Μαν. Χιώτη]
TTITLE2=Λίντα Μαίρη - Δεν με νοιάζει, αν δεν είναι ωραίος [1964,Απ.Καλδάρα-Γ.Σ
TTITLE2=αμολαδά]
TTITLE3=Λίντα Μαίρη-Χιώτης Μανώλης - Μίσος [1961, Μαν. Χιώτη]
TTITLE4=Λίντα Μαίρη-Χιώτης Μανώλης - Ο μπεκρής [1961, Μαν. Χιώτη]
TTITLE5=Λίντα Μαίρη-Χιώτης Μανώλης - Για δάκρυα μαντήλι [1962, Μαν. Χιώτη]
TTITLE6=Λίντα Μαίρη-Χιώτης Μανώλης - Τώρα κλάψε συ για μένα [1965, Στέλ. Μακρυ
TTITLE6=δάκη]
TTITLE7=Λίντα Μαίρη-Χιώτης Μανώλης - Στάσου [1962, Μαν. Χιώτη]
TTITLE8=Λίντα Μαίρη - Ξέχασε την προδοσία [1965, Μαν. Χιώτη]
TTITLE9=Λίντα Μαίρη - Με μουσική δική μου [1964, Μαν. Χιώτη]
TTITLE10=Λίντα Μαίρη-Χιώτης Μανώλης - Ο ναυαγός [1961, Μαν. Χιώτη]
TTITLE11=Λίντα Μαίρη - Ένα μικρό σπουργίτι [1965, Μαν. Χιώτη]
TTITLE12=Λίντα Μαίρη-Χιώτης Μανώλης - Δεν σε ρωτώ για τ' όνομά σου [1963, Μαν.
TTITLE12=Χιώτη]
TTITLE13=Λίντα Μαίρη - Έχει γλύκα η σκλαβιά σου [1962, Μαν. Χιώτη]
TTITLE14=Λίντα Μαίρη - Ας με σαρώσει ο ποταμός [1962, Μαν. Χιώτη]
TTITLE15=Λίντα Μαίρη-Χιώτης Μανώλης - Είμαι τσιγγάνα φλογερή [1961, Μαν. Χιώτη
TTITLE15=]
TTITLE16=Λίντα Μαίρη-Χιώτης Μανώλης - Η κατάρα [1961, Μαν. Χιώτη]
TTITLE17=Λίντα Μαίρη - Την ολόχρυση τη βέρα [1963, Μαν. Χιώτη-Χρ. Κολοκοτρώνη]
TTITLE18=Λίντα Μαίρη - Νά 'ταν ο πόνος άνθρωπος [1961, Μαν. Χιώτη]
TTITLE19=Λίντα Μαίρη - Για μιά καινούργια αγκαλιά [1961, Μαν. Χιώτη]
EXTD=
EXTT0=
EXTT1=
EXTT2=
EXTT3=
EXTT4=
EXTT5=
EXTT6=
EXTT7=
EXTT8=
EXTT9=
EXTT10=
EXTT11=
EXTT12=
EXTT13=
EXTT14=
EXTT15=
EXTT16=
EXTT17=
EXTT18=
EXTT19=
PLAYORDER=
